<svg  width="24" height="24" xmlns="http://www.w3.org/2000/svg" viewBox="0 0 64 56.32"><defs><style>.cls-1{fill:#35353d;}</style></defs><title>Asset 35</title><g id="Layer_2"><g id="Layer_1-2"><path class="cls-1" d="M63.22,22.34a2.57,2.57,0,0,0-3.62.06l-3.39,3.52A28.14,28.14,0,0,0,8.05,8.45h0a29.36,29.36,0,0,0-3.52,4.38,2.55,2.55,0,0,0,2.15,4,2.53,2.53,0,0,0,2.14-1.16A24.49,24.49,0,0,1,11.7,12h0A23,23,0,0,1,51.08,25.84l-3.19-3.19a2.56,2.56,0,1,0-3.62,3.62L52,34a2.56,2.56,0,0,0,1.81.75h0a2.56,2.56,0,0,0,1.82-.79L63.28,26A2.57,2.57,0,0,0,63.22,22.34Z"/><path class="cls-1" d="M15.53,47.43a23,23,0,0,1-6.4-6.28A2.56,2.56,0,1,0,4.9,44a28,28,0,0,0,7.82,7.67,2.49,2.49,0,0,0,1.4.42,2.56,2.56,0,0,0,1.41-4.7Z"/><path class="cls-1" d="M5.61,32.91a22.86,22.86,0,0,1-.49-4.75A23.54,23.54,0,0,1,5.5,24a2.56,2.56,0,1,0-5-.93A28.39,28.39,0,0,0,.6,34a2.56,2.56,0,0,0,2.5,2,2.39,2.39,0,0,0,.53-.06A2.56,2.56,0,0,0,5.61,32.91Z"/><path class="cls-1" d="M32.8,50.73a23.34,23.34,0,0,1-9,.06,2.56,2.56,0,0,0-1,5,28.31,28.31,0,0,0,11-.07,2.56,2.56,0,0,0-1-5Z"/><path class="cls-1" d="M44.61,44.29a23.21,23.21,0,0,1-3.53,3,2.56,2.56,0,0,0,1.44,4.68A2.61,2.61,0,0,0,44,51.48a28.23,28.23,0,0,0,4.32-3.61,2.56,2.56,0,0,0-3.66-3.58Z"/></g></g></svg>